<svg width="40" height="44" viewBox="0 0 40 44" fill="none" xmlns="http://www.w3.org/2000/svg">
<path fill-rule="evenodd" clip-rule="evenodd" d="M39.7317 16.2756C39.392 17.6675 39.0247 18.9469 38.6916 19.9057C39.2898 14.8708 35.4729 7.40155 32.0081 5.54224C40.5865 12.853 37.1825 29.8135 24.6457 29.8135C18.5755 29.8135 13.1565 24.2521 13.9342 16.3364C15.9595 21.7007 19.8195 23.8162 23.3271 23.6574C33.431 23.2004 32.9467 7.94106 23.0655 6.99243C21.4571 6.85245 19.8373 7.06169 18.3183 7.60564C16.7992 8.14958 15.4172 9.01526 14.2679 10.1427C6.96923 17.4264 9.77332 35.9229 14.2913 44.0002C13.8645 42.3815 13.5905 40.7269 13.4729 39.0577C13.4644 38.8088 13.4711 38.5596 13.493 38.3115C16.7664 39.4337 20.2768 39.6914 23.6805 39.0592C27.0841 38.4271 30.2643 36.9269 32.9095 34.7055C35.5546 32.4841 37.5742 29.6177 38.7702 26.3871C39.9662 23.1564 40.2978 19.6723 39.7324 16.276L39.7317 16.2756Z" fill="#00365B"/>
<path fill-rule="evenodd" clip-rule="evenodd" d="M22.5032 2.14973C26.2176 2.45236 28.9757 3.3908 31.0314 4.79601C29.4024 2.61369 19.277 -3.47319 9.42202 2.66746C5.79051 4.92474 2.98244 8.27998 1.40998 12.2407C-0.162472 16.2014 -0.416492 20.559 0.685215 24.6738C0.928776 23.7069 1.2392 22.7579 1.61426 21.8335C1.54532 24.9743 1.78359 28.9309 3.39951 35.8427C3.41436 22.6496 4.98821 2.40069 22.5032 2.14973Z" fill="#E93739"/>
</svg>
