<svg width="24" height="24" viewBox="0 0 24 24" fill="none" xmlns="http://www.w3.org/2000/svg">
<path d="M10.75 12.2329L9.53355 11.0164C9.04829 10.5312 8.25171 10.5312 7.76645 11.0164C7.28118 11.5017 7.28118 12.2983 7.76645 12.7836L11.1164 16.1336C11.6017 16.6188 12.3983 16.6188 12.8836 16.1336L16.2336 12.7836C16.7188 12.2983 16.7188 11.5017 16.2336 11.0164C15.9848 10.7677 15.6655 10.65 15.35 10.65C15.0345 10.65 14.7152 10.7677 14.4664 11.0164L13.25 12.2329V9.5H16.8C18.2946 9.5 19.4577 9.96497 20.245 10.7533C21.0321 11.5415 21.4947 12.7043 21.49 14.1984V14.2V16.8C21.49 18.2946 21.0251 19.4578 20.2364 20.2464C19.4478 21.0351 18.2846 21.5 16.79 21.5H7.2C5.70546 21.5 4.54235 21.0351 3.7538 20.2454C2.96518 19.4557 2.5 18.29 2.5 16.79V14.2C2.5 12.7054 2.96492 11.5422 3.75355 10.7536C4.54218 9.96492 5.70545 9.5 7.2 9.5H10.75V12.2329Z" fill="url(#paint0_linear_1353_6113)" stroke="url(#paint1_linear_1353_6113)"/>
<path d="M12 2.5C12.1339 2.5 12.25 2.61614 12.25 2.75V8.5H11.75V2.75C11.75 2.61614 11.8661 2.5 12 2.5Z" fill="url(#paint2_linear_1353_6113)" stroke="url(#paint3_linear_1353_6113)"/>
<defs>
<linearGradient id="paint0_linear_1353_6113" x1="-0.944961" y1="9" x2="25.1891" y2="22.1348" gradientUnits="userSpaceOnUse">
<stop stop-color="#FFAB7B"/>
<stop offset="1" stop-color="#FDA53E"/>
</linearGradient>
<linearGradient id="paint1_linear_1353_6113" x1="-0.944961" y1="9" x2="25.1891" y2="22.1348" gradientUnits="userSpaceOnUse">
<stop stop-color="#FFAB7B"/>
<stop offset="1" stop-color="#FDA53E"/>
</linearGradient>
<linearGradient id="paint2_linear_1353_6113" x1="11.029" y1="2" x2="13.4734" y2="2.1712" gradientUnits="userSpaceOnUse">
<stop stop-color="#FFAB7B"/>
<stop offset="1" stop-color="#FDA53E"/>
</linearGradient>
<linearGradient id="paint3_linear_1353_6113" x1="11.029" y1="2" x2="13.4734" y2="2.1712" gradientUnits="userSpaceOnUse">
<stop stop-color="#FFAB7B"/>
<stop offset="1" stop-color="#FDA53E"/>
</linearGradient>
</defs>
</svg>
