<svg width="21" height="22" viewBox="0 0 21 22" fill="none" xmlns="http://www.w3.org/2000/svg">
<path d="M20.6991 11.0585C20.6991 10.3558 20.6311 9.63052 20.5178 8.95052H10.7031V12.9625H16.3245C16.0978 14.2545 15.3498 15.3878 14.2391 16.1132L17.5938 18.7198C19.5658 16.8838 20.6991 14.2092 20.6991 11.0585Z" fill="#4280EF"/>
<path d="M10.7035 21.2131C13.5142 21.2131 15.8715 20.2838 17.5942 18.6971L14.2395 16.1131C13.3102 16.7477 12.1088 17.1104 10.7035 17.1104C7.98349 17.1104 5.69416 15.2744 4.85549 12.8264L1.41016 15.4784C3.17816 18.9917 6.75949 21.2131 10.7035 21.2131Z" fill="#34A353"/>
<path d="M4.85502 12.8038C4.42435 11.5118 4.42435 10.1065 4.85502 8.81451L1.40969 6.13985C-0.0636458 9.08651 -0.0636458 12.5545 1.40969 15.4785L4.85502 12.8038Z" fill="#F6B704"/>
<path d="M10.7035 4.53051C12.1768 4.50785 13.6275 5.07451 14.6928 6.09451L17.6622 3.10251C15.7808 1.33451 13.2875 0.382514 10.7035 0.405181C6.75949 0.405181 3.17816 2.62651 1.41016 6.13985L4.85549 8.81451C5.69416 6.34385 7.98349 4.53051 10.7035 4.53051Z" fill="#E54335"/>
</svg>
