<svg width="44" height="46" viewBox="0 0 44 46" fill="none" xmlns="http://www.w3.org/2000/svg">
<g filter="url(#filter0_bd_2768_12232)">
<circle cx="22" cy="18" r="18" fill="url(#paint0_linear_2768_12232)" shape-rendering="crispEdges"/>
<circle cx="22" cy="18" r="17.75" stroke="white" stroke-width="0.5" shape-rendering="crispEdges"/>
</g>
<path d="M23.2775 22.5575C23.0875 22.5575 22.8975 22.4875 22.7475 22.3375L19.2175 18.8075C18.9275 18.5175 18.9275 18.0375 19.2175 17.7475L22.7475 14.2175C23.0375 13.9275 23.5175 13.9275 23.8075 14.2175C24.0975 14.5075 24.0975 14.9875 23.8075 15.2775L20.8075 18.2775L23.8075 21.2775C24.0975 21.5675 24.0975 22.0475 23.8075 22.3375C23.6675 22.4875 23.4775 22.5575 23.2775 22.5575Z" fill="white"/>
<defs>
<filter id="filter0_bd_2768_12232" x="-6" y="-10" width="56" height="56" filterUnits="userSpaceOnUse" color-interpolation-filters="sRGB">
<feFlood flood-opacity="0" result="BackgroundImageFix"/>
<feGaussianBlur in="BackgroundImage" stdDeviation="5"/>
<feComposite in2="SourceAlpha" operator="in" result="effect1_backgroundBlur_2768_12232"/>
<feColorMatrix in="SourceAlpha" type="matrix" values="0 0 0 0 0 0 0 0 0 0 0 0 0 0 0 0 0 0 127 0" result="hardAlpha"/>
<feOffset dy="6"/>
<feGaussianBlur stdDeviation="2"/>
<feComposite in2="hardAlpha" operator="out"/>
<feColorMatrix type="matrix" values="0 0 0 0 0 0 0 0 0 0 0 0 0 0 0 0 0 0 0.15 0"/>
<feBlend mode="normal" in2="effect1_backgroundBlur_2768_12232" result="effect2_dropShadow_2768_12232"/>
<feBlend mode="normal" in="SourceGraphic" in2="effect2_dropShadow_2768_12232" result="shape"/>
</filter>
<linearGradient id="paint0_linear_2768_12232" x1="4" y1="19.9185" x2="40" y2="19.926" gradientUnits="userSpaceOnUse">
<stop offset="0.000614249" stop-color="white" stop-opacity="0.7"/>
<stop offset="1" stop-color="white" stop-opacity="0.5"/>
</linearGradient>
</defs>
</svg>
