<svg width="25" height="24" viewBox="0 0 25 24" fill="none" xmlns="http://www.w3.org/2000/svg">
<path d="M9.3335 22H15.3335C20.3335 22 22.3335 20 22.3335 15V9C22.3335 4 20.3335 2 15.3335 2H9.3335C4.3335 2 2.3335 4 2.3335 9V15C2.3335 20 4.3335 22 9.3335 22Z" stroke="#999999" stroke-width="1.5" stroke-linecap="round" stroke-linejoin="round"/>
<path d="M9.23325 16.5299C9.71325 16.0099 10.4533 16.0499 10.8733 16.6199L11.4733 17.4199C11.9433 18.0499 12.7232 18.0499 13.1932 17.4199L13.7833 16.6299C14.2033 16.0699 14.9432 16.0299 15.4232 16.5399C16.4732 17.6599 17.3232 17.2899 17.3232 15.7199V9.08987C17.3232 6.71987 16.7632 6.12988 14.5432 6.12988H10.1032C7.88324 6.12988 7.32324 6.71987 7.32324 9.08987V15.7199C7.33324 17.2699 8.19325 17.6399 9.23325 16.5299Z" stroke="#999999" stroke-width="1.5" stroke-linecap="round" stroke-linejoin="round"/>
</svg>
