<svg width="44" height="46" viewBox="0 0 44 46" fill="none" xmlns="http://www.w3.org/2000/svg">
<g filter="url(#filter0_bd_2768_12235)">
<circle r="18" transform="matrix(-1 0 0 1 22 18)" fill="url(#paint0_linear_2768_12235)" shape-rendering="crispEdges"/>
<circle r="17.75" transform="matrix(-1 0 0 1 22 18)" stroke="white" stroke-width="0.5" shape-rendering="crispEdges"/>
</g>
<path d="M20.7225 22.5575C20.9125 22.5575 21.1025 22.4875 21.2525 22.3375L24.7825 18.8075C25.0725 18.5175 25.0725 18.0375 24.7825 17.7475L21.2525 14.2175C20.9625 13.9275 20.4825 13.9275 20.1925 14.2175C19.9025 14.5075 19.9025 14.9875 20.1925 15.2775L23.1925 18.2775L20.1925 21.2775C19.9025 21.5675 19.9025 22.0475 20.1925 22.3375C20.3325 22.4875 20.5225 22.5575 20.7225 22.5575Z" fill="white"/>
<defs>
<filter id="filter0_bd_2768_12235" x="-6" y="-10" width="56" height="56" filterUnits="userSpaceOnUse" color-interpolation-filters="sRGB">
<feFlood flood-opacity="0" result="BackgroundImageFix"/>
<feGaussianBlur in="BackgroundImage" stdDeviation="5"/>
<feComposite in2="SourceAlpha" operator="in" result="effect1_backgroundBlur_2768_12235"/>
<feColorMatrix in="SourceAlpha" type="matrix" values="0 0 0 0 0 0 0 0 0 0 0 0 0 0 0 0 0 0 127 0" result="hardAlpha"/>
<feOffset dy="6"/>
<feGaussianBlur stdDeviation="2"/>
<feComposite in2="hardAlpha" operator="out"/>
<feColorMatrix type="matrix" values="0 0 0 0 0 0 0 0 0 0 0 0 0 0 0 0 0 0 0.15 0"/>
<feBlend mode="normal" in2="effect1_backgroundBlur_2768_12235" result="effect2_dropShadow_2768_12235"/>
<feBlend mode="normal" in="SourceGraphic" in2="effect2_dropShadow_2768_12235" result="shape"/>
</filter>
<linearGradient id="paint0_linear_2768_12235" x1="0" y1="19.9185" x2="36" y2="19.926" gradientUnits="userSpaceOnUse">
<stop offset="0.000614249" stop-color="white" stop-opacity="0.7"/>
<stop offset="1" stop-color="white" stop-opacity="0.5"/>
</linearGradient>
</defs>
</svg>
