<svg width="24" height="25" viewBox="0 0 24 25" fill="none" xmlns="http://www.w3.org/2000/svg">
<path d="M3.66219 9.82001L17.6622 2.82001C18.2147 2.54502 18.8386 2.44712 19.4488 2.53966C20.0589 2.6322 20.6257 2.91068 21.0719 3.33712C21.518 3.76357 21.8217 4.31723 21.9417 4.92262C22.0617 5.52801 21.992 6.15566 21.7422 6.72001L19.3422 12.09C19.2877 12.2198 19.2597 12.3592 19.2597 12.5C19.2597 12.6408 19.2877 12.7802 19.3422 12.91L21.7422 18.28C21.9455 18.7367 22.0314 19.237 21.9922 19.7354C21.953 20.2337 21.7899 20.7144 21.5176 21.1337C21.2454 21.553 20.8727 21.8976 20.4334 22.1362C19.9941 22.3748 19.5021 22.4999 19.0022 22.5C18.534 22.4953 18.0727 22.386 17.6522 22.18L3.65219 15.18C3.1556 14.9302 2.73817 14.5473 2.4465 14.0741C2.15483 13.6009 2.00038 13.0559 2.00038 12.5C2.00038 11.9441 2.15483 11.3992 2.4465 10.9259C2.73817 10.4527 3.1556 10.0698 3.65219 9.82001H3.66219ZM4.55219 13.39L18.5522 20.39C18.736 20.4783 18.9425 20.5082 19.1438 20.4759C19.3452 20.4435 19.5318 20.3503 19.6787 20.2089C19.8256 20.0674 19.9257 19.8844 19.9657 19.6844C20.0056 19.4845 19.9835 19.277 19.9022 19.09L17.5122 13.72C17.4813 13.6483 17.4545 13.5748 17.4322 13.5H10.5422C10.277 13.5 10.0226 13.3946 9.83509 13.2071C9.64755 13.0196 9.54219 12.7652 9.54219 12.5C9.54219 12.2348 9.64755 11.9804 9.83509 11.7929C10.0226 11.6054 10.277 11.5 10.5422 11.5H17.4322C17.4545 11.4252 17.4813 11.3517 17.5122 11.28L19.9022 5.91001C19.9835 5.72297 20.0056 5.51556 19.9657 5.31558C19.9257 5.1156 19.8256 4.93261 19.6787 4.79115C19.5318 4.6497 19.3452 4.55654 19.1438 4.52416C18.9425 4.49178 18.736 4.52174 18.5522 4.61001L4.55219 11.61C4.38839 11.6939 4.25093 11.8214 4.15494 11.9785C4.05894 12.1355 4.00815 12.316 4.00815 12.5C4.00815 12.6841 4.05894 12.8645 4.15494 13.0216C4.25093 13.1786 4.38839 13.3061 4.55219 13.39Z" fill="#A5B4CA"/>
</svg>
