<svg width="12" height="8" viewBox="0 0 12 8" fill="none" xmlns="http://www.w3.org/2000/svg">
<path d="M1.0501 6.83494C1.23746 7.02119 1.49091 7.12573 1.7551 7.12573C2.01929 7.12573 2.27274 7.02119 2.4601 6.83494L6.0501 3.29494L9.5901 6.83494C9.77746 7.02119 10.0309 7.12573 10.2951 7.12573C10.5593 7.12573 10.8127 7.02119 11.0001 6.83494C11.0938 6.74198 11.1682 6.63138 11.219 6.50952C11.2698 6.38766 11.2959 6.25695 11.2959 6.12494C11.2959 5.99293 11.2698 5.86222 11.219 5.74036C11.1682 5.6185 11.0938 5.5079 11.0001 5.41494L6.7601 1.17494C6.66714 1.08121 6.55654 1.00682 6.43468 0.956049C6.31282 0.90528 6.18211 0.879142 6.0501 0.879142C5.91809 0.879142 5.78738 0.90528 5.66552 0.956049C5.54366 1.00682 5.43306 1.08121 5.3401 1.17494L1.0501 5.41494C0.956372 5.5079 0.881978 5.6185 0.831209 5.74036C0.78044 5.86222 0.754301 5.99293 0.754301 6.12494C0.754301 6.25695 0.78044 6.38766 0.831209 6.50952C0.881978 6.63138 0.956372 6.74198 1.0501 6.83494Z" fill="#333333"/>
</svg>
